<?xml version="1.0" encoding="UTF-8"?>
<svg xmlns="http://www.w3.org/2000/svg" xmlns:xlink="http://www.w3.org/1999/xlink" width="500px" height="500px" viewBox="0 0 500 500" version="1.1">
<g id="surface1">
<path style=" stroke:none;fill-rule:nonzero;fill:rgb(0%,0%,0%);fill-opacity:1;" d="M 225.585938 48.4375 C 212.792969 50.097656 209.375 50.78125 197.851562 53.710938 C 181.054688 58.007812 154.980469 69.335938 142.578125 77.636719 C 139.746094 79.492188 137.304688 81.054688 137.109375 81.054688 C 136.132812 81.054688 121.484375 92.578125 114.257812 99.121094 C 100.585938 111.328125 85.839844 128.90625 77.246094 143.261719 C 74.414062 148.046875 71.679688 152.539062 71.191406 153.320312 C 70.214844 154.980469 63.476562 169.433594 61.035156 175.292969 C 58.203125 182.03125 53.027344 199.511719 51.171875 208.496094 C 50.976562 209.570312 50.585938 211.523438 50.292969 212.890625 C 49.121094 218.554688 48.828125 220.605469 48.046875 228.027344 C 47.167969 238.085938 47.167969 262.890625 48.144531 272.949219 C 50.878906 300.585938 63.769531 336.425781 79.785156 360.839844 C 108.59375 404.492188 150.585938 434.277344 201.757812 447.167969 C 209.863281 449.21875 210.449219 449.316406 225.097656 451.5625 C 233.59375 452.832031 268.652344 453.027344 274.414062 451.757812 C 275.78125 451.5625 278.515625 451.074219 280.566406 450.78125 C 289.648438 449.414062 291.992188 448.925781 300.292969 446.777344 C 316.894531 442.382812 321.875 440.527344 339.746094 432.03125 C 374.414062 415.429688 404.101562 387.792969 425.195312 352.636719 C 428.222656 347.65625 430.664062 343.359375 430.664062 343.164062 C 430.664062 343.066406 432.324219 339.257812 434.472656 334.765625 C 439.648438 323.730469 443.75 312.011719 446.777344 300 C 449.21875 290.136719 449.707031 287.890625 450.78125 279.785156 C 450.976562 277.636719 451.464844 275.195312 451.757812 274.414062 C 452.734375 271.972656 452.929688 237.207031 452.050781 229.492188 C 445.3125 168.847656 414.941406 117.773438 364.648438 82.226562 C 360.058594 79.003906 345.800781 70.800781 339.0625 67.382812 C 326.855469 61.425781 308.691406 54.785156 299.804688 53.125 C 298.4375 52.832031 294.921875 52.050781 291.992188 51.269531 C 289.0625 50.488281 284.472656 49.609375 281.738281 49.316406 C 279.101562 48.925781 275.78125 48.4375 274.414062 48.242188 C 268.652344 47.070312 234.375 47.167969 225.585938 48.4375 Z M 194.921875 142.382812 C 198.535156 144.433594 247.363281 194.042969 248.632812 196.972656 C 253.515625 208.398438 244.140625 220.117188 231.738281 218.261719 C 227.34375 217.675781 226.171875 216.699219 215.136719 205.761719 L 203.125 193.945312 L 203.125 270.214844 C 203.125 353.710938 203.320312 350.683594 197.363281 355.761719 C 190.429688 361.523438 180.078125 359.960938 174.707031 352.34375 C 173.535156 350.78125 172.558594 348.828125 172.363281 347.851562 C 172.167969 346.972656 171.972656 311.914062 171.972656 270.117188 L 171.875 193.945312 L 159.960938 205.761719 C 147.167969 218.359375 145.117188 219.53125 137.597656 218.261719 C 133.496094 217.578125 128.613281 214.160156 126.757812 210.644531 C 125.097656 207.421875 124.707031 201.660156 125.878906 197.949219 C 127.148438 194.140625 176.855469 143.847656 181.347656 141.796875 C 184.277344 140.527344 192.1875 140.820312 194.921875 142.382812 Z M 321.191406 143.359375 C 322.558594 144.335938 324.511719 146.386719 325.585938 147.851562 C 327.636719 150.488281 327.636719 151.464844 327.929688 228.320312 L 328.125 306.054688 L 340.136719 294.238281 C 351.074219 283.300781 352.441406 282.324219 356.640625 281.738281 C 369.238281 279.882812 378.515625 291.503906 373.632812 303.027344 C 372.070312 306.835938 322.460938 356.445312 318.652344 358.105469 C 315.234375 359.570312 310.9375 359.570312 306.835938 358.105469 C 302.34375 356.445312 252.34375 306.445312 250.976562 302.148438 C 249.804688 298.730469 250.292969 292.1875 251.855469 289.257812 C 254.980469 283.398438 264.0625 279.980469 270.703125 282.128906 C 272.753906 282.8125 278.125 287.402344 285.15625 294.433594 L 296.386719 305.664062 L 296.875 228.222656 L 297.363281 150.683594 L 300.195312 147.070312 C 301.757812 145.019531 304.394531 142.773438 306.054688 141.992188 C 309.960938 140.234375 317.96875 140.917969 321.191406 143.359375 Z M 321.191406 143.359375 "/>
</g>
</svg>
