<?xml version="1.0" standalone="no"?>
<!DOCTYPE svg PUBLIC "-//W3C//DTD SVG 20010904//EN"
 "http://www.w3.org/TR/2001/REC-SVG-20010904/DTD/svg10.dtd">
<svg version="1.0" xmlns="http://www.w3.org/2000/svg"
 width="512.000000pt" height="512.000000pt" viewBox="0 0 512.000000 512.000000"
 preserveAspectRatio="xMidYMid meet">
<metadata>
</metadata>
<g transform="translate(0.000000,512.000000) scale(0.100000,-0.100000)"
fill="#000000" stroke="none">
<path d="M2310 4624 c-131 -17 -166 -24 -284 -54 -172 -44 -439 -160 -566
-245 -29 -19 -54 -35 -56 -35 -10 0 -160 -118 -234 -185 -140 -125 -291 -305
-379 -452 -29 -49 -57 -95 -62 -103 -10 -17 -79 -165 -104 -225 -29 -69 -82
-248 -101 -340 -2 -11 -6 -31 -9 -45 -12 -58 -15 -79 -23 -155 -9 -103 -9
-357 1 -460 28 -283 160 -650 324 -900 295 -447 725 -752 1249 -884 83 -21 89
-22 239 -45 87 -13 446 -15 505 -2 14 2 42 7 63 10 93 14 117 19 202 41 170
45 221 64 404 151 355 170 659 453 875 813 31 51 56 95 56 97 0 1 17 40 39 86
53 113 95 233 126 356 25 101 30 124 41 207 2 22 7 47 10 55 10 25 12 381 3
460 -69 621 -380 1144 -895 1508 -47 33 -193 117 -262 152 -125 61 -311 129
-402 146 -14 3 -50 11 -80 19 -30 8 -77 17 -105 20 -27 4 -61 9 -75 11 -59 12
-410 11 -500 -2z m-314 -962 c37 -21 537 -529 550 -559 50 -117 -46 -237 -173
-218 -45 6 -57 16 -170 128 l-123 121 0 -781 c0 -855 2 -824 -59 -876 -71 -59
-177 -43 -232 35 -12 16 -22 36 -24 46 -2 9 -4 368 -4 796 l-1 780 -122 -121
c-131 -129 -152 -141 -229 -128 -42 7 -92 42 -111 78 -17 33 -21 92 -9 130 13
39 522 554 568 575 30 13 111 10 139 -6z m1293 -10 c14 -10 34 -31 45 -46 21
-27 21 -37 24 -824 l2 -796 123 121 c112 112 126 122 169 128 129 19 224 -100
174 -218 -16 -39 -524 -547 -563 -564 -35 -15 -79 -15 -121 0 -46 17 -558 529
-572 573 -12 35 -7 102 9 132 32 60 125 95 193 73 21 -7 76 -54 148 -126 l115
-115 5 793 5 794 29 37 c16 21 43 44 60 52 40 18 122 11 155 -14z"/>
</g>
</svg>
